<svg width="43" height="43" viewBox="0 0 43 43" fill="none" xmlns="http://www.w3.org/2000/svg">
<path d="M0.5 4.95428L0.5 30.7292H2.5L2.5 4.95428H0.5ZM30.7809 0.448242L5.00603 0.448242V2.44824L30.7809 2.44824V0.448242ZM35.287 11.1032V4.95427H33.287V11.1032H35.287ZM42.5001 17.8417C42.5001 14.5733 39.8505 11.9237 36.5821 11.9237V13.9237C38.746 13.9237 40.5001 15.6778 40.5001 17.8417H42.5001ZM36.5821 23.7598C39.8505 23.7598 42.5001 21.1102 42.5001 17.8417H40.5001C40.5001 20.0056 38.746 21.7598 36.5821 21.7598L36.5821 23.7598ZM35.287 30.7292V24.5802L33.287 24.5802V30.7292L35.287 30.7292ZM24.6319 35.2352H30.7809L30.7809 33.2352H24.6319L24.6319 35.2352ZM21.8115 36.5302C21.8115 38.6941 20.0574 40.4482 17.8935 40.4482V42.4482C21.1619 42.4482 23.8115 39.7986 23.8115 36.5302L21.8115 36.5302ZM17.8935 40.4482C15.7296 40.4482 13.9755 38.6941 13.9755 36.5302H11.9755C11.9755 39.7986 14.6251 42.4482 17.8935 42.4482V40.4482ZM5.00603 35.2352H11.1551V33.2352H5.00603V35.2352ZM24.6319 33.2352C23.6834 33.2352 22.9572 33.7703 22.5074 34.3871C22.0611 34.9991 21.8115 35.7798 21.8115 36.5302L23.8115 36.5302C23.8115 36.1969 23.9304 35.8301 24.1233 35.5656C24.3128 35.3058 24.4968 35.2352 24.6319 35.2352L24.6319 33.2352ZM33.287 30.7292C33.287 32.1132 32.165 33.2352 30.7809 33.2352L30.7809 35.2352C33.2695 35.2352 35.287 33.2178 35.287 30.7292L33.287 30.7292ZM33.287 11.1032C33.287 12.0518 33.8221 12.778 34.4389 13.2278C35.0509 13.6741 35.8317 13.9237 36.5821 13.9237V11.9237C36.2488 11.9237 35.882 11.8048 35.6174 11.6119C35.3575 11.4224 35.287 11.2384 35.287 11.1032H33.287ZM36.5821 21.7598C35.8317 21.7598 35.0509 22.0093 34.4389 22.4556C33.8221 22.9054 33.287 23.6317 33.287 24.5802L35.287 24.5802C35.287 24.445 35.3575 24.261 35.6174 24.0716C35.882 23.8786 36.2488 23.7598 36.5821 23.7598L36.5821 21.7598ZM13.9755 36.5302C13.9755 35.7798 13.7259 34.9991 13.2796 34.3871C12.8298 33.7703 12.1036 33.2352 11.1551 33.2352V35.2352C11.2902 35.2352 11.4742 35.3058 11.6637 35.5656C11.8566 35.8301 11.9755 36.1969 11.9755 36.5302H13.9755ZM30.7809 2.44824C32.165 2.44824 33.287 3.57023 33.287 4.95427H35.287C35.287 2.46566 33.2695 0.448243 30.7809 0.448242V2.44824ZM0.5 30.7292C0.5 33.2178 2.51742 35.2352 5.00603 35.2352V33.2352C3.62199 33.2352 2.5 32.1132 2.5 30.7292H0.5ZM2.5 4.95428C2.5 3.57023 3.62199 2.44824 5.00603 2.44824V0.448242C2.51742 0.448242 0.5 2.46566 0.5 4.95428H2.5Z" fill="white" fill-opacity="0.4"/>
</svg>
