<svg width="84" height="43" viewBox="0 0 84 43" fill="none" xmlns="http://www.w3.org/2000/svg">
<path d="M41.4094 5.00603L41.4094 30.7809H43.4094L43.4094 5.00603H41.4094ZM71.6904 0.5L45.9155 0.5V2.5L71.6904 2.5V0.5ZM76.1964 11.155V5.00603H74.1964V11.155H76.1964ZM83.4095 17.8935C83.4095 14.625 80.7599 11.9754 77.4915 11.9754V13.9754C79.6554 13.9754 81.4095 15.7296 81.4095 17.8935H83.4095ZM77.4915 23.8115C80.7599 23.8115 83.4095 21.1619 83.4095 17.8935H81.4095C81.4095 20.0573 79.6554 21.8115 77.4915 21.8115V23.8115ZM76.1964 30.7809V24.632L74.1964 24.632V30.7809L76.1964 30.7809ZM65.5413 35.287H71.6904V33.287H65.5413V35.287ZM62.721 36.582C62.721 38.7458 60.9668 40.5 58.8029 40.5V42.5C62.0714 42.5 64.721 39.8504 64.721 36.582L62.721 36.582ZM58.8029 40.5C56.639 40.5 54.8849 38.7458 54.8849 36.582H52.8849C52.8849 39.8504 55.5345 42.5 58.8029 42.5V40.5ZM45.9155 35.287H52.0645V33.287H45.9155V35.287ZM65.5413 33.287C64.5928 33.287 63.8666 33.8221 63.4168 34.4389C62.9705 35.0509 62.721 35.8316 62.721 36.582L64.721 36.582C64.721 36.2487 64.8398 35.8819 65.0327 35.6173C65.2222 35.3575 65.4062 35.287 65.5413 35.287V33.287ZM74.1964 30.7809C74.1964 32.165 73.0744 33.287 71.6904 33.287V35.287C74.179 35.287 76.1964 33.2696 76.1964 30.7809L74.1964 30.7809ZM74.1964 11.155C74.1964 12.1035 74.7315 12.8297 75.3483 13.2796C75.9604 13.7259 76.7411 13.9754 77.4915 13.9754V11.9754C77.1582 11.9754 76.7914 11.8566 76.5268 11.6636C76.267 11.4741 76.1964 11.2901 76.1964 11.155H74.1964ZM77.4915 21.8115C76.7411 21.8115 75.9604 22.061 75.3483 22.5074C74.7315 22.9572 74.1964 23.6834 74.1964 24.632L76.1964 24.632C76.1964 24.4968 76.267 24.3128 76.5268 24.1233C76.7914 23.9304 77.1582 23.8115 77.4915 23.8115V21.8115ZM54.8849 36.582C54.8849 35.8316 54.6354 35.0509 54.189 34.4389C53.7392 33.8221 53.013 33.287 52.0645 33.287V35.287C52.1997 35.287 52.3836 35.3575 52.5731 35.6173C52.766 35.8819 52.8849 36.2487 52.8849 36.582H54.8849ZM71.6904 2.5C73.0744 2.5 74.1964 3.62199 74.1964 5.00603H76.1964C76.1964 2.51741 74.179 0.5 71.6904 0.5V2.5ZM41.4094 30.7809C41.4094 33.2696 43.4268 35.287 45.9155 35.287V33.287C44.5314 33.287 43.4094 32.165 43.4094 30.7809H41.4094ZM43.4094 5.00603C43.4094 3.62199 44.5314 2.5 45.9155 2.5V0.5C43.4268 0.5 41.4094 2.51742 41.4094 5.00603H43.4094Z" fill="white" fill-opacity="0.4"/>
<path d="M30.7808 0.5L5.00593 0.5L5.00593 2.5L30.7808 2.5L30.7808 0.5ZM35.2869 30.7809L35.2869 5.00603L33.2869 5.00603L33.2869 30.7809L35.2869 30.7809ZM24.6318 35.287L30.7808 35.287L30.7808 33.287L24.6318 33.287L24.6318 35.287ZM17.8934 28.0739C20.0572 28.0739 21.8114 29.828 21.8114 31.9919L23.8114 31.9919C23.8114 28.7235 21.1618 26.0739 17.8934 26.0739L17.8934 28.0739ZM13.9753 31.9919C13.9753 29.828 15.7295 28.0739 17.8934 28.0739L17.8934 26.0739C14.6249 26.0739 11.9753 28.7235 11.9753 31.9919L13.9753 31.9919ZM5.00593 35.287L11.1549 35.287L11.1549 33.287L5.00593 33.287L5.00593 35.287ZM0.499897 24.632L0.499897 30.7809L2.4999 30.7809L2.4999 24.632L0.499897 24.632ZM7.71307 17.8935C7.71307 20.0574 5.9589 21.8116 3.79502 21.8116L3.79502 23.8116C7.06347 23.8116 9.71307 21.162 9.71307 17.8935L7.71307 17.8935ZM3.79502 13.9755C5.9589 13.9755 7.71307 15.7297 7.71307 17.8935L9.71307 17.8935C9.71307 14.6251 7.06347 11.9755 3.79502 11.9755L3.79502 13.9755ZM0.499897 5.00603L0.499897 11.155L2.4999 11.155L2.4999 5.00603L0.499897 5.00603ZM2.4999 24.632C2.4999 24.4969 2.57047 24.3129 2.83029 24.1234C3.09489 23.9304 3.46171 23.8116 3.79502 23.8116L3.79502 21.8116C3.04462 21.8116 2.26388 22.0611 1.65184 22.5074C1.03503 22.9573 0.499897 23.6835 0.499897 24.632L2.4999 24.632ZM5.00593 33.287C3.62189 33.287 2.4999 32.165 2.4999 30.7809L0.499897 30.7809C0.499897 33.2696 2.51732 35.287 5.00593 35.287L5.00593 33.287ZM24.6318 33.287C24.4967 33.287 24.3127 33.2164 24.1232 32.9566C23.9302 32.692 23.8114 32.3252 23.8114 31.9919L21.8114 31.9919C21.8114 32.7423 22.0609 33.523 22.5073 34.1351C22.9571 34.7518 23.6833 35.287 24.6318 35.287L24.6318 33.287ZM11.9753 31.9919C11.9753 32.3252 11.8565 32.692 11.6635 32.9566C11.4741 33.2164 11.2901 33.287 11.1549 33.287L11.1549 35.287C12.1034 35.287 12.8296 34.7518 13.2795 34.135C13.7258 33.523 13.9753 32.7423 13.9753 31.9919L11.9753 31.9919ZM3.79502 11.9755C3.46171 11.9755 3.09489 11.8566 2.83029 11.6637C2.57047 11.4742 2.4999 11.2902 2.4999 11.155L0.499897 11.155C0.499897 12.1036 1.03503 12.8298 1.65184 13.2796C2.26388 13.726 3.04462 13.9755 3.79502 13.9755L3.79502 11.9755ZM33.2869 30.7809C33.2869 32.165 32.1649 33.287 30.7808 33.287L30.7808 35.287C33.2694 35.287 35.2869 33.2695 35.2869 30.7809L33.2869 30.7809ZM5.00593 0.5C2.51731 0.5 0.499897 2.51742 0.499897 5.00603L2.4999 5.00603C2.4999 3.62199 3.62189 2.5 5.00593 2.5L5.00593 0.5ZM30.7808 2.5C32.1649 2.5 33.2869 3.62199 33.2869 5.00603L35.2869 5.00603C35.2869 2.51742 33.2694 0.5 30.7808 0.5L30.7808 2.5Z" fill="white" fill-opacity="0.4"/>
</svg>
