<svg width="83" height="43" viewBox="0 0 83 43" fill="none" xmlns="http://www.w3.org/2000/svg">
<path d="M0.5 5.00603L0.5 30.7809H2.5L2.5 5.00603H0.5ZM30.7809 0.5L5.00603 0.5V2.5L30.7809 2.5V0.5ZM35.287 11.155V5.00603H33.287V11.155H35.287ZM42.5001 17.8935C42.5001 14.625 39.8505 11.9754 36.5821 11.9754V13.9754C38.746 13.9754 40.5001 15.7296 40.5001 17.8935H42.5001ZM36.5821 23.8115C39.8505 23.8115 42.5001 21.1619 42.5001 17.8935H40.5001C40.5001 20.0573 38.746 21.8115 36.5821 21.8115L36.5821 23.8115ZM35.287 30.7809V24.632L33.287 24.632V30.7809L35.287 30.7809ZM24.6319 35.287H30.7809L30.7809 33.287H24.6319L24.6319 35.287ZM21.8115 36.582C21.8115 38.7458 20.0574 40.5 17.8935 40.5V42.5C21.1619 42.5 23.8115 39.8504 23.8115 36.582L21.8115 36.582ZM17.8935 40.5C15.7296 40.5 13.9755 38.7458 13.9755 36.582H11.9755C11.9755 39.8504 14.6251 42.5 17.8935 42.5V40.5ZM5.00603 35.287H11.1551V33.287H5.00603V35.287ZM24.6319 33.287C23.6834 33.287 22.9572 33.8221 22.5074 34.4389C22.0611 35.0509 21.8115 35.8316 21.8115 36.582L23.8115 36.582C23.8115 36.2487 23.9304 35.8819 24.1233 35.6173C24.3128 35.3575 24.4968 35.287 24.6319 35.287L24.6319 33.287ZM33.287 30.7809C33.287 32.165 32.165 33.287 30.7809 33.287L30.7809 35.287C33.2695 35.287 35.287 33.2696 35.287 30.7809L33.287 30.7809ZM33.287 11.155C33.287 12.1035 33.8221 12.8297 34.4389 13.2796C35.0509 13.7259 35.8317 13.9754 36.5821 13.9754V11.9754C36.2488 11.9754 35.882 11.8566 35.6174 11.6636C35.3575 11.4741 35.287 11.2901 35.287 11.155H33.287ZM36.5821 21.8115C35.8317 21.8115 35.0509 22.061 34.4389 22.5074C33.8221 22.9572 33.287 23.6834 33.287 24.632L35.287 24.632C35.287 24.4968 35.3575 24.3128 35.6174 24.1233C35.882 23.9304 36.2488 23.8115 36.5821 23.8115L36.5821 21.8115ZM13.9755 36.582C13.9755 35.8316 13.7259 35.0509 13.2796 34.4389C12.8298 33.8221 12.1036 33.287 11.1551 33.287V35.287C11.2902 35.287 11.4742 35.3575 11.6637 35.6173C11.8566 35.8819 11.9755 36.2487 11.9755 36.582H13.9755ZM30.7809 2.5C32.165 2.5 33.287 3.62199 33.287 5.00603H35.287C35.287 2.51741 33.2695 0.5 30.7809 0.5V2.5ZM0.5 30.7809C0.5 33.2696 2.51742 35.287 5.00603 35.287V33.287C3.62199 33.287 2.5 32.165 2.5 30.7809H0.5ZM2.5 5.00603C2.5 3.62199 3.62199 2.5 5.00603 2.5V0.5C2.51742 0.5 0.5 2.51742 0.5 5.00603H2.5Z" fill="white" fill-opacity="0.4"/>
<path d="M52.5814 34.287L52.5814 35.287L52.5814 34.287ZM78.3563 0.5L52.5814 0.5L52.5814 2.5L78.3563 2.5L78.3563 0.5ZM82.8623 30.7809L82.8623 5.00603L80.8623 5.00603L80.8623 30.7809L82.8623 30.7809ZM72.2072 35.287L78.3563 35.287L78.3563 33.287L72.2072 33.287L72.2072 35.287ZM65.4688 28.074C67.6327 28.074 69.3868 29.8281 69.3868 31.992L71.3868 31.992C71.3868 28.7236 68.7372 26.074 65.4688 26.074L65.4688 28.074ZM61.5508 31.992C61.5508 29.8281 63.3049 28.074 65.4688 28.074L65.4688 26.074C62.2004 26.074 59.5508 28.7236 59.5508 31.992L61.5508 31.992ZM52.5814 35.287L58.7304 35.287L58.7304 33.287L52.5814 33.287L52.5814 35.287ZM48.0753 24.632L48.0753 30.7809L50.0753 30.7809L50.0753 24.632L48.0753 24.632ZM55.2885 17.8935C55.2885 20.0574 53.5343 21.8115 51.3704 21.8115L51.3704 23.8115C54.6389 23.8115 57.2885 21.1619 57.2885 17.8935L55.2885 17.8935ZM51.3704 13.9754C53.5343 13.9754 55.2885 15.7296 55.2885 17.8935L57.2885 17.8935C57.2885 14.625 54.6389 11.9754 51.3704 11.9754L51.3704 13.9754ZM48.0753 5.00603L48.0753 11.155L50.0753 11.155L50.0753 5.00603L48.0753 5.00603ZM50.0753 24.632C50.0753 24.4968 50.1459 24.3128 50.4057 24.1233C50.6703 23.9304 51.0371 23.8115 51.3704 23.8115L51.3704 21.8115C50.62 21.8115 49.8393 22.0611 49.2273 22.5074C48.6105 22.9572 48.0753 23.6834 48.0753 24.632L50.0753 24.632ZM52.5814 33.287C51.1973 33.287 50.0753 32.165 50.0753 30.7809L48.0753 30.7809C48.0753 33.2696 50.0928 35.287 52.5814 35.287L52.5814 33.287ZM72.2072 33.287C72.072 33.287 71.8881 33.2164 71.6986 32.9566C71.5057 32.6921 71.3868 32.3253 71.3868 31.992L69.3868 31.992C69.3868 32.7424 69.6364 33.5231 70.0827 34.1351C70.5325 34.7519 71.2587 35.287 72.2072 35.287L72.2072 33.287ZM59.5508 31.992C59.5508 32.3253 59.4319 32.6921 59.239 32.9566C59.0495 33.2164 58.8655 33.287 58.7304 33.287L58.7304 35.287C59.6789 35.287 60.4051 34.7519 60.8549 34.1351C61.3012 33.5231 61.5508 32.7424 61.5508 31.992L59.5508 31.992ZM51.3704 11.9754C51.0371 11.9754 50.6703 11.8566 50.4057 11.6636C50.1459 11.4742 50.0753 11.2902 50.0753 11.155L48.0753 11.155C48.0753 12.1035 48.6105 12.8298 49.2273 13.2796C49.8393 13.7259 50.62 13.9754 51.3704 13.9754L51.3704 11.9754ZM80.8623 30.7809C80.8623 32.165 79.7403 33.287 78.3563 33.287L78.3563 35.287C80.8449 35.287 82.8623 33.2695 82.8623 30.7809L80.8623 30.7809ZM52.5814 0.5C50.0928 0.5 48.0753 2.51742 48.0753 5.00603L50.0753 5.00603C50.0753 3.62199 51.1973 2.5 52.5814 2.5L52.5814 0.5ZM78.3563 2.5C79.7403 2.5 80.8623 3.62199 80.8623 5.00603L82.8623 5.00603C82.8623 2.51742 80.8449 0.5 78.3563 0.5L78.3563 2.5Z" fill="white" fill-opacity="0.4"/>
</svg>
