<svg width="62" height="62" viewBox="0 0 62 62" fill="none" xmlns="http://www.w3.org/2000/svg">
<g filter="url(#filter0_d_81_3625)">
<path d="M26.4691 49.0512L26.4691 49.0512C26.4535 45.8961 26.3522 43.3878 26.0219 41.357C25.6911 39.3229 25.1276 37.7472 24.1738 36.4697C22.2714 33.9218 18.8781 32.6499 13.0528 31.1285C11.8485 30.8034 11.0657 29.6454 11.233 28.4779C11.4026 27.2943 12.455 26.4312 13.7161 26.4241C16.7269 26.4357 19.1103 26.3678 21.0474 26.0668C22.9895 25.7651 24.5024 25.2265 25.7614 24.2839C27.0195 23.3422 27.9981 22.0165 28.9055 20.1857C29.8114 18.3579 30.6554 16.0073 31.6341 13.0005M26.4691 49.0512L31.4147 49.8244C35.2918 37.7941 36.9394 36.5773 49.0061 36.5894L49.0057 36.2818C49.006 36.2818 49.0062 36.2818 49.0064 36.2818C50.3016 36.2798 51.3191 35.4139 51.4864 34.2464C51.6586 33.0451 50.8924 31.9237 49.6492 31.5743C43.8342 30.0545 40.4457 28.7832 38.55 26.2385C37.5995 24.9626 37.0399 23.389 36.7142 21.3582C36.3892 19.3312 36.2943 16.828 36.2873 13.6798C36.2653 12.3988 35.4308 11.4055 34.244 11.2355C33.0981 11.0713 32.0311 11.7886 31.6341 13.0005M26.4691 49.0512L26.4691 49.0557C26.4568 50.3236 27.3041 51.3211 28.4755 51.4889C29.6039 51.6506 30.6877 50.9529 31.1234 49.7259L26.4691 49.0512ZM31.6341 13.0005L31.3416 12.9053M31.6341 13.0005C31.634 13.0006 31.634 13.0008 31.6339 13.001L31.3416 12.9053M31.3416 12.9053C27.4276 24.9303 25.7589 26.163 13.7159 26.1166L36.5948 13.6769C36.5715 12.2584 35.6386 11.1246 34.2876 10.931C32.9736 10.7427 31.7783 11.5715 31.3416 12.9053Z" stroke="#FFA37C" stroke-width="0.615107" shape-rendering="crispEdges"/>
</g>
<defs>
<filter id="filter0_d_81_3625" x="0.90332" y="0.904297" width="60.915" height="60.9155" filterUnits="userSpaceOnUse" color-interpolation-filters="sRGB">
<feFlood flood-opacity="0" result="BackgroundImageFix"/>
<feColorMatrix in="SourceAlpha" type="matrix" values="0 0 0 0 0 0 0 0 0 0 0 0 0 0 0 0 0 0 127 0" result="hardAlpha"/>
<feOffset/>
<feGaussianBlur stdDeviation="5"/>
<feComposite in2="hardAlpha" operator="out"/>
<feColorMatrix type="matrix" values="0 0 0 0 0.68674 0 0 0 0 0.539323 0 0 0 0 1 0 0 0 0.35 0"/>
<feBlend mode="normal" in2="BackgroundImageFix" result="effect1_dropShadow_81_3625"/>
<feBlend mode="normal" in="SourceGraphic" in2="effect1_dropShadow_81_3625" result="shape"/>
</filter>
</defs>
</svg>
