<svg width="13" height="13" viewBox="0 0 13 13" fill="none" xmlns="http://www.w3.org/2000/svg">
<path d="M8.89993 4.7V2.9C8.89993 1.57452 7.82541 0.5 6.49993 0.5C5.17445 0.5 4.09993 1.57452 4.09993 2.9V4.7M1.45513 5.51118L1.09513 9.35118C0.992772 10.443 0.941593 10.9889 1.12276 11.4106C1.28191 11.781 1.5608 12.0872 1.91474 12.2803C2.31764 12.5 2.86595 12.5 3.96256 12.5H9.0373C10.1339 12.5 10.6822 12.5 11.0851 12.2803C11.4391 12.0872 11.7179 11.781 11.8771 11.4106C12.0583 10.9889 12.0071 10.443 11.9047 9.35118L11.5447 5.51118C11.4583 4.58921 11.4151 4.12822 11.2077 3.7797C11.0251 3.47275 10.7553 3.22707 10.4327 3.07391C10.0663 2.9 9.60332 2.9 8.6773 2.9L4.32256 2.9C3.39654 2.9 2.93354 2.9 2.56718 3.07391C2.24453 3.22707 1.97473 3.47275 1.79213 3.7797C1.58478 4.12822 1.54157 4.58921 1.45513 5.51118Z" stroke="#8C8C8C" stroke-width="0.75" stroke-linecap="round" stroke-linejoin="round"/>
</svg>
