<svg width="13" height="13" viewBox="0 0 13 13" fill="none" xmlns="http://www.w3.org/2000/svg">
<path d="M8.9 3.5001C8.9 2.94211 8.9 2.66312 8.83867 2.43422C8.67223 1.81306 8.18704 1.32787 7.56587 1.16143C7.33697 1.1001 7.05798 1.1001 6.5 1.1001C5.94202 1.1001 5.66303 1.1001 5.43413 1.16143C4.81296 1.32787 4.32777 1.81306 4.16133 2.43422C4.1 2.66312 4.1 2.94211 4.1 3.5001M2.42 11.9001H10.58C11.2521 11.9001 11.5881 11.9001 11.8448 11.7693C12.0706 11.6543 12.2542 11.4707 12.3692 11.2449C12.5 10.9882 12.5 10.6522 12.5 9.9801V5.4201C12.5 4.74803 12.5 4.412 12.3692 4.15531C12.2542 3.92951 12.0706 3.74594 11.8448 3.63089C11.5881 3.5001 11.2521 3.5001 10.58 3.5001H2.42C1.74794 3.5001 1.41191 3.5001 1.15521 3.63089C0.929417 3.74594 0.74584 3.92951 0.630792 4.15531C0.5 4.412 0.5 4.74803 0.5 5.4201V9.9801C0.5 10.6522 0.5 10.9882 0.630792 11.2449C0.74584 11.4707 0.929417 11.6543 1.15521 11.7693C1.41191 11.9001 1.74794 11.9001 2.42 11.9001Z" stroke="#8C8C8C" stroke-width="0.75" stroke-linecap="round" stroke-linejoin="round"/>
</svg>
