<svg width="25" height="25" viewBox="0 0 25 25" fill="none" xmlns="http://www.w3.org/2000/svg">
<path d="M5.82686 2.91487C5.82686 2.45228 5.82686 2.22098 5.89427 2.03577C6.00728 1.72529 6.25186 1.48071 6.56234 1.3677C6.74755 1.30029 6.97885 1.30029 7.44144 1.30029H17.6257C18.0883 1.30029 18.3196 1.30029 18.5048 1.3677C18.8153 1.48071 19.0599 1.72529 19.1729 2.03577C19.2403 2.22098 19.2403 2.45228 19.2403 2.91487V9.1248C19.2403 12.8288 16.2376 15.8315 12.5336 15.8315C8.82956 15.8315 5.82686 12.8288 5.82686 9.1248V2.91487Z" fill="#F2F2F2"/>
<path d="M6.94465 23.1592C6.94465 20.9643 8.72402 19.1849 10.919 19.1849H14.1482C16.3431 19.1849 18.1225 20.9643 18.1225 23.1592C18.1225 23.4336 17.9001 23.656 17.6257 23.656H7.44144C7.16707 23.656 6.94465 23.4336 6.94465 23.1592Z" fill="#F2F2F2"/>
<path d="M12.5336 15.8315C8.82956 15.8315 5.82686 12.8288 5.82686 9.1248V2.91487C5.82686 2.45228 5.82686 2.22098 5.89427 2.03577C6.00728 1.72529 6.25186 1.48071 6.56234 1.3677C6.74755 1.30029 6.97885 1.30029 7.44144 1.30029H17.6257C18.0883 1.30029 18.3196 1.30029 18.5048 1.3677C18.8153 1.48071 19.0599 1.72529 19.1729 2.03577C19.2403 2.22098 19.2403 2.45228 19.2403 2.91487V9.1248C19.2403 12.8288 16.2376 15.8315 12.5336 15.8315ZM12.5336 15.8315V19.1849M19.2403 3.53587H22.0348C22.5556 3.53587 22.816 3.53587 23.0214 3.62095C23.2953 3.7344 23.5129 3.95201 23.6264 4.22589C23.7114 4.43131 23.7114 4.69172 23.7114 5.21255V5.77144C23.7114 6.81095 23.7114 7.3307 23.5972 7.75714C23.2871 8.91436 22.3832 9.81825 21.226 10.1283C20.7996 10.2426 20.2798 10.2426 19.2403 10.2426M5.82686 3.53587H3.03239C2.51157 3.53587 2.25116 3.53587 2.04574 3.62095C1.77185 3.7344 1.55425 3.95201 1.4408 4.22589C1.35571 4.43131 1.35571 4.69172 1.35571 5.21255V5.77144C1.35571 6.81095 1.35571 7.3307 1.46998 7.75714C1.78005 8.91436 2.68394 9.81825 3.84116 10.1283C4.26759 10.2426 4.78735 10.2426 5.82686 10.2426M7.44144 23.656H17.6257C17.9001 23.656 18.1225 23.4336 18.1225 23.1592C18.1225 20.9643 16.3431 19.1849 14.1482 19.1849H10.919C8.72402 19.1849 6.94465 20.9643 6.94465 23.1592C6.94465 23.4336 7.16707 23.656 7.44144 23.656Z" stroke="#8C8C8C" stroke-width="1.59684" stroke-linecap="round" stroke-linejoin="round"/>
</svg>
