<svg width="11" height="13" viewBox="0 0 11 13" fill="none" xmlns="http://www.w3.org/2000/svg">
<path d="M6.7002 5.9H3.1002M4.3002 8.3H3.1002M7.9002 3.5H3.1002M10.3002 3.38V9.62C10.3002 10.6281 10.3002 11.1321 10.104 11.5172C9.93144 11.8559 9.65607 12.1312 9.31738 12.3038C8.93234 12.5 8.42829 12.5 7.4202 12.5H3.5802C2.5721 12.5 2.06805 12.5 1.68301 12.3038C1.34432 12.1312 1.06896 11.8559 0.896384 11.5172C0.700195 11.1321 0.700195 10.6281 0.700195 9.62V3.38C0.700195 2.37191 0.700195 1.86786 0.896384 1.48282C1.06896 1.14413 1.34432 0.86876 1.68301 0.696188C2.06805 0.5 2.5721 0.5 3.5802 0.5H7.4202C8.42829 0.5 8.93234 0.5 9.31738 0.696188C9.65607 0.86876 9.93144 1.14413 10.104 1.48282C10.3002 1.86786 10.3002 2.37191 10.3002 3.38Z" stroke="#8C8C8C" stroke-width="0.75" stroke-linecap="round" stroke-linejoin="round"/>
</svg>
