<svg width="14" height="11" viewBox="0 0 14 11" fill="none" xmlns="http://www.w3.org/2000/svg">
<path d="M0.849609 2.71144L5.73888 6.13392C6.1348 6.41107 6.33276 6.54964 6.54808 6.60331C6.73829 6.65072 6.93722 6.65072 7.12742 6.60331C7.34275 6.54964 7.54071 6.41107 7.93662 6.13393L12.8259 2.71144M3.72392 10.496H9.95159C10.9577 10.496 11.4607 10.496 11.845 10.3002C12.183 10.128 12.4579 9.85317 12.6301 9.51515C12.8259 9.13087 12.8259 8.62781 12.8259 7.62171V3.7893C12.8259 2.7832 12.8259 2.28015 12.6301 1.89587C12.4579 1.55785 12.183 1.28302 11.845 1.11079C11.4607 0.914993 10.9577 0.914993 9.95159 0.914993H3.72392C2.71782 0.914993 2.21476 0.914993 1.83048 1.11079C1.49246 1.28302 1.21764 1.55785 1.04541 1.89587C0.849609 2.28015 0.849609 2.7832 0.849609 3.7893V7.62171C0.849609 8.62781 0.849609 9.13087 1.04541 9.51515C1.21764 9.85317 1.49246 10.128 1.83048 10.3002C2.21476 10.496 2.71782 10.496 3.72392 10.496Z" stroke="#8C8C8C" stroke-width="0.798419" stroke-linecap="round" stroke-linejoin="round"/>
</svg>
