<svg width="17" height="25" viewBox="0 0 17 25" fill="none" xmlns="http://www.w3.org/2000/svg">
<path d="M4.74037 24.9128C2.74253 24.9283 0.952911 23.6798 0.277692 21.7995C-0.397527 19.9191 0.189065 17.8174 1.74045 16.5585C0.640077 15.6679 0.000764393 14.328 0.000764393 12.9124C0.000764393 11.4968 0.640077 10.1569 1.74045 9.26627C0.188568 8.00779 -0.398375 5.90591 0.27697 4.02548C0.952316 2.14504 2.74241 0.896864 4.74037 0.913121H12.0722C14.0702 0.896864 15.8602 2.14504 16.5356 4.02548C17.2109 5.90591 16.624 8.00779 15.0721 9.26627C16.6235 10.5252 17.2101 12.6269 16.5349 14.5073C15.8597 16.3876 14.07 17.6361 12.0722 17.6205C11.1494 17.6216 10.2464 17.353 9.47426 16.8477V20.2076C9.46301 22.8127 7.34552 24.9173 4.74037 24.9128ZM4.71397 17.6217C3.29265 17.6441 2.15647 18.8105 2.17138 20.232C2.18629 21.6534 3.34668 22.7957 4.76816 22.7884C6.18964 22.781 7.33813 21.6267 7.33831 20.2052V17.6217H4.71277H4.71397ZM12.0734 10.3294C10.6483 10.3367 9.49822 11.4966 9.50305 12.9217C9.50792 14.3469 10.6658 15.4989 12.091 15.4965C13.5161 15.4941 14.6701 14.3381 14.6701 12.913C14.6648 11.4827 13.5025 10.3268 12.0722 10.3294H12.0734ZM4.74157 10.3294C3.81857 10.3245 2.96304 10.8124 2.49727 11.6093C2.03149 12.4061 2.02623 13.391 2.48347 14.1928C2.9407 14.9946 3.79097 15.4916 4.71397 15.4965H7.33831V10.3294H4.74157ZM9.47426 3.03723V8.20553H12.071C13.46 8.21198 14.606 7.12002 14.6665 5.73236V6.25435V5.62076C14.6606 4.19217 13.5008 3.03723 12.0722 3.03723H9.47426ZM4.73917 3.03723C3.81617 3.03723 2.96327 3.52965 2.50177 4.32899C2.04026 5.12834 2.04026 6.11318 2.50177 6.91253C2.96327 7.71188 3.81617 8.2043 4.73917 8.2043H7.33831V3.03723H4.73917Z" fill="#8C8C8C"/>
</svg>
