<svg width="11" height="15" viewBox="0 0 11 15" fill="none" xmlns="http://www.w3.org/2000/svg">
<path d="M3.89286 13.9287H7.10714M4.21429 6.21439H6.78571M5.5 6.21439L5.5 10.0715M7.42857 9.63848C8.94889 8.91626 10 7.36665 10 5.57153C10 3.08625 7.98528 1.07153 5.5 1.07153C3.01472 1.07153 1 3.08625 1 5.57153C1 7.36665 2.05111 8.91626 3.57143 9.63848V10.0715C3.57143 10.6706 3.57143 10.9701 3.6693 11.2064C3.79979 11.5214 4.05009 11.7717 4.36512 11.9022C4.6014 12.0001 4.90093 12.0001 5.5 12.0001C6.09907 12.0001 6.3986 12.0001 6.63488 11.9022C6.94991 11.7717 7.20021 11.5214 7.3307 11.2064C7.42857 10.9701 7.42857 10.6706 7.42857 10.0715V9.63848Z" stroke="#8C8C8C" stroke-width="0.75" stroke-linecap="round" stroke-linejoin="round"/>
</svg>
