<svg width="12" height="12" viewBox="0 0 12 12" fill="none" xmlns="http://www.w3.org/2000/svg">
<path d="M0.483284 10.0817C0.171482 10.3935 0.171482 10.8991 0.483284 11.2109C0.795086 11.5227 1.30062 11.5227 1.61242 11.2109L0.483284 10.0817ZM11.0281 1.46448C11.0281 1.02352 10.6706 0.666059 10.2297 0.666059H3.0439C2.60294 0.666059 2.24548 1.02352 2.24548 1.46448C2.24548 1.90543 2.60294 2.2629 3.0439 2.2629H9.43125V8.65025C9.43125 9.0912 9.78871 9.44867 10.2297 9.44867C10.6706 9.44867 11.0281 9.0912 11.0281 8.65025V1.46448ZM1.61242 11.2109L10.7942 2.02905L9.6651 0.89991L0.483284 10.0817L1.61242 11.2109Z" fill="#8C8C8C"/>
</svg>
