<svg width="13" height="13" viewBox="0 0 13 13" fill="none" xmlns="http://www.w3.org/2000/svg">
<path d="M6.50023 8.5C4.38684 8.5 2.50742 9.52042 1.31089 11.104C1.05336 11.4448 0.924599 11.6152 0.928811 11.8455C0.932065 12.0235 1.0438 12.2479 1.1838 12.3578C1.36502 12.5 1.61614 12.5 2.11838 12.5H10.8821C11.3843 12.5 11.6354 12.5 11.8166 12.3578C11.9567 12.2479 12.0684 12.0235 12.0716 11.8455C12.0759 11.6152 11.9471 11.4448 11.6896 11.104C10.493 9.52042 8.61361 8.5 6.50023 8.5Z" stroke="#8C8C8C" stroke-width="0.75" stroke-linecap="round" stroke-linejoin="round"/>
<path d="M6.50023 6.5C8.15708 6.5 9.50023 5.15685 9.50023 3.5C9.50023 1.84315 8.15708 0.5 6.50023 0.5C4.84337 0.5 3.50023 1.84315 3.50023 3.5C3.50023 5.15685 4.84337 6.5 6.50023 6.5Z" stroke="#8C8C8C" stroke-width="0.75" stroke-linecap="round" stroke-linejoin="round"/>
</svg>
