<svg width="319" height="94" viewBox="0 0 319 94" fill="none" xmlns="http://www.w3.org/2000/svg">
<path d="M0.5 5C0.5 4.17157 1.17157 3.5 2 3.5H10C10.8284 3.5 11.5 4.17157 11.5 5V9V13C11.5 13.8284 10.8284 14.5 10 14.5H2C1.17157 14.5 0.5 13.8284 0.5 13V5Z" stroke="#18A0FB"/>
<path d="M0.5 57C0.5 56.1716 1.17157 55.5 2 55.5H10C10.8284 55.5 11.5 56.1716 11.5 57V61V65C11.5 65.8284 10.8284 66.5 10 66.5H2C1.17157 66.5 0.5 65.8284 0.5 65V57Z" stroke="#18A0FB"/>
<path d="M12 9H307" stroke="#18A0FB" stroke-linecap="round"/>
<path d="M12 61H307" stroke="#18A0FB" stroke-linecap="round"/>
<path d="M6 15L6 55" stroke="#18A0FB" stroke-linecap="round"/>
<path d="M307.5 5C307.5 4.17157 308.172 3.5 309 3.5H317C317.828 3.5 318.5 4.17157 318.5 5V9V13C318.5 13.8284 317.828 14.5 317 14.5H309C308.172 14.5 307.5 13.8284 307.5 13V5Z" stroke="#18A0FB"/>
<path d="M307.5 57C307.5 56.1716 308.172 55.5 309 55.5H317C317.828 55.5 318.5 56.1716 318.5 57V61V65C318.5 65.8284 317.828 66.5 317 66.5H309C308.172 66.5 307.5 65.8284 307.5 65V57Z" stroke="#18A0FB"/>
<path d="M313 15L313 55" stroke="#18A0FB" stroke-linecap="round"/>
</svg>
