<svg width="10" height="11" viewBox="0 0 10 11" fill="none" xmlns="http://www.w3.org/2000/svg">
<path d="M1.625 10.413V8.16296M1.625 3.66296V1.41296M0.5 2.53796H2.75M0.5 9.28796H2.75M5.45 1.86296L4.66962 3.89195C4.54271 4.22191 4.47926 4.38688 4.38059 4.52565C4.29313 4.64864 4.18568 4.7561 4.06269 4.84355C3.92392 4.94223 3.75894 5.00568 3.42899 5.13258L1.4 5.91296L3.42899 6.69334C3.75894 6.82025 3.92392 6.8837 4.06269 6.98238C4.18568 7.06983 4.29314 7.17728 4.38059 7.30028C4.47926 7.43905 4.54271 7.60402 4.66962 7.93398L5.45 9.96296L6.23038 7.93398C6.35729 7.60402 6.42074 7.43905 6.51941 7.30028C6.60686 7.17728 6.71432 7.06983 6.83731 6.98238C6.97608 6.8837 7.14106 6.82025 7.47101 6.69334L9.5 5.91296L7.47101 5.13258C7.14106 5.00568 6.97608 4.94223 6.83731 4.84355C6.71432 4.7561 6.60686 4.64864 6.51941 4.52565C6.42074 4.38688 6.35729 4.22191 6.23038 3.89195L5.45 1.86296Z" stroke="#D6D5DB" stroke-width="0.9" stroke-linecap="round" stroke-linejoin="round"/>
</svg>
