<svg width="491" height="180" viewBox="0 0 491 180" fill="none" xmlns="http://www.w3.org/2000/svg">
<path d="M275.25 80.2172C275.105 79.7854 275.091 79.56 275.187 79.1873M274.361 80.4575C274.115 79.5724 274.121 79.129 274.333 78.412M273.338 80.7339C272.999 79.4568 272.971 78.7566 273.238 77.5377M272.405 80.9863C272.339 80.7362 272.276 80.5307 272.199 80.3437M271.616 79.3927C271.749 79.5614 271.858 79.7111 271.949 79.857" stroke="#646464" stroke-width="0.388959" stroke-linecap="round"/>
<path d="M325.783 72.808C325.769 72.3527 325.819 72.1327 326.019 71.8036M324.862 72.7813C324.882 71.8628 325.015 71.4399 325.426 70.8148M323.803 72.7505C323.846 71.4297 324.022 70.7513 324.63 69.6616M322.836 72.7225C322.846 72.4643 322.844 72.2491 322.825 72.048M322.541 70.9691C322.62 71.1691 322.681 71.3438 322.726 71.5098" stroke="#646464" stroke-width="0.388959" stroke-linecap="round"/>
<path d="M370.498 93.5563L374.586 95.513L445.293 129.756L328.554 170.679L213.25 107.596L230.53 99.4504L240.795 94.6113L270.954 80.3938L277.084 77.5041L284.08 74.2064L289.327 71.733L307.253 63.2825L326.054 72.2819L332.612 75.4213L335.667 76.8838L338.417 78.2L362.781 89.8622L368.464 92.583L370.498 93.5563Z" fill="url(#paint0_linear_39_2138)" stroke="url(#paint1_radial_39_2138)" stroke-opacity="0.5" stroke-width="0.620733"/>
<path fill-rule="evenodd" clip-rule="evenodd" d="M220.889 82.3825C220.889 82.3825 220.238 83.8295 219.551 85.5235C218.768 83.0344 217 79.104 217 79.104C217 79.104 214.577 84.488 214.147 86.6439L205.83 82.1773L170.897 94.575C170.673 94.0491 170.404 93.509 170.077 92.915C169.968 92.7163 169.718 92.6437 169.52 92.7528C169.321 92.862 169.248 93.1116 169.358 93.3104C169.664 93.8689 169.915 94.3699 170.121 94.8502L168.723 95.3463L168.707 95.3211C168.585 95.1302 168.331 95.0747 168.14 95.197C167.995 95.2899 167.928 95.4586 167.958 95.618L-5 157L-3 180H342.189H388L255.117 108.644C256.148 108.201 256.868 107.189 256.868 106.011C256.868 104.424 253.951 97.9409 253.951 97.9409C253.951 97.9409 251.034 104.424 251.034 106.011C251.034 106.167 251.046 106.321 251.071 106.471L242.048 101.626C242.088 101.449 242.159 101.276 242.282 101.05C242.39 100.851 242.316 100.602 242.117 100.494C241.918 100.385 241.669 100.459 241.56 100.658C241.454 100.854 241.369 101.038 241.307 101.228L240.704 100.904C240.711 100.874 240.718 100.844 240.725 100.814C240.834 100.377 241.014 99.9823 241.307 99.4848C241.422 99.2895 241.357 99.0378 241.162 98.9226C240.967 98.8074 240.715 98.8723 240.6 99.0677C240.305 99.5675 240.094 100.009 239.958 100.504L239.13 100.059C239.139 100.015 239.148 99.9715 239.158 99.9281C239.322 99.2003 239.592 98.5053 240.031 97.6235C240.133 97.4206 240.05 97.1741 239.847 97.0729C239.644 96.9718 239.398 97.0544 239.296 97.2573C238.857 98.1396 238.563 98.8761 238.378 99.6556L223.527 91.6806C223.706 91.3082 223.807 90.8918 223.807 90.4524C223.807 88.866 220.889 82.3825 220.889 82.3825Z" fill="url(#paint2_linear_39_2138)"/>
<path d="M219.551 85.5235L219.839 85.6402L219.514 86.4404L219.255 85.6167L219.551 85.5235ZM220.889 82.3825L220.606 82.2552L220.889 81.6261L221.172 82.2552L220.889 82.3825ZM217 79.104L216.717 78.9767L217 78.3476L217.283 78.9767L217 79.104ZM214.147 86.6439L214.452 86.7045L214.37 87.1156L214.001 86.9173L214.147 86.6439ZM205.83 82.1773L205.726 81.8848L205.855 81.8389L205.977 81.9039L205.83 82.1773ZM170.897 94.575L171 94.8675L170.725 94.9652L170.611 94.6964L170.897 94.575ZM170.077 92.915L169.805 93.0645V93.0645L170.077 92.915ZM169.52 92.7528L169.669 93.0249V93.0249L169.52 92.7528ZM169.358 93.3104L169.63 93.1609L169.63 93.1609L169.358 93.3104ZM170.121 94.8502L170.406 94.7277L170.537 95.0319L170.225 95.1427L170.121 94.8502ZM168.723 95.3463L168.827 95.6388L168.595 95.7213L168.462 95.5136L168.723 95.3463ZM168.707 95.3211L168.968 95.1536L168.968 95.1539L168.707 95.3211ZM168.14 95.197L168.307 95.4583V95.4583L168.14 95.197ZM167.958 95.618L168.263 95.5612L168.311 95.8218L168.061 95.9105L167.958 95.618ZM-5 157L-5.3092 157.027L-5.32999 156.788L-5.10379 156.708L-5 157ZM-3 180V180.31H-3.28455L-3.3092 180.027L-3 180ZM388 180L388.147 179.727L388 180.31V180ZM255.117 108.644L254.971 108.918L254.404 108.613L254.995 108.359L255.117 108.644ZM253.951 97.9409L253.668 97.8135L253.951 97.1845L254.234 97.8135L253.951 97.9409ZM251.071 106.471L251.377 106.421L251.479 107.043L250.924 106.745L251.071 106.471ZM242.048 101.626L241.901 101.899L241.692 101.787L241.745 101.556L242.048 101.626ZM242.282 101.05L242.554 101.199L242.554 101.199L242.282 101.05ZM242.117 100.494L242.265 100.221V100.221L242.117 100.494ZM241.56 100.658L241.288 100.51L241.288 100.51L241.56 100.658ZM241.307 101.228L241.602 101.324L241.487 101.677L241.16 101.502L241.307 101.228ZM240.704 100.904L240.557 101.178L240.349 101.066L240.401 100.836L240.704 100.904ZM240.725 100.814L241.026 100.889V100.889L240.725 100.814ZM241.307 99.4848L241.04 99.3271L241.04 99.3271L241.307 99.4848ZM241.162 98.9226L241.32 98.6552L241.32 98.6552L241.162 98.9226ZM240.6 99.0677L240.867 99.2253L240.867 99.2253L240.6 99.0677ZM239.958 100.504L240.257 100.586L240.154 100.961L239.811 100.777L239.958 100.504ZM239.13 100.059L238.983 100.333L238.779 100.223L238.826 99.9962L239.13 100.059ZM239.158 99.9281L239.461 99.9963V99.9963L239.158 99.9281ZM240.031 97.6235L239.754 97.4851V97.4851L240.031 97.6235ZM239.847 97.0729L239.985 96.7951V96.7951L239.847 97.0729ZM239.296 97.2573L239.574 97.3957V97.3958L239.296 97.2573ZM238.378 99.6556L238.68 99.7272L238.587 100.12L238.232 99.929L238.378 99.6556ZM223.527 91.6806L223.38 91.954L223.119 91.8136L223.247 91.546L223.527 91.6806ZM219.264 85.4069C219.608 84.5569 219.944 83.7693 220.193 83.1943C220.318 82.9068 220.421 82.6722 220.493 82.5095C220.529 82.4281 220.557 82.3646 220.577 82.3215C220.586 82.2999 220.594 82.2834 220.599 82.2723C220.601 82.2667 220.603 82.2625 220.604 82.2596C220.605 82.2582 220.605 82.2571 220.606 82.2564C220.606 82.256 220.606 82.2557 220.606 82.2555C220.606 82.2554 220.606 82.2553 220.606 82.2553C220.606 82.2553 220.606 82.2552 220.606 82.2552C220.606 82.2552 220.606 82.2552 220.889 82.3825C221.172 82.5099 221.172 82.5099 221.172 82.5099C221.172 82.5099 221.172 82.5099 221.172 82.5099C221.172 82.51 221.172 82.51 221.172 82.5101C221.172 82.5103 221.172 82.5105 221.172 82.5109C221.172 82.5115 221.171 82.5125 221.171 82.5139C221.169 82.5166 221.167 82.5207 221.165 82.5262C221.16 82.537 221.153 82.5533 221.143 82.5746C221.124 82.6172 221.096 82.68 221.061 82.7607C220.989 82.9222 220.887 83.1553 220.763 83.4412C220.515 84.0132 220.181 84.7961 219.839 85.6402L219.264 85.4069ZM217 79.104C217.283 78.9767 217.283 78.9767 217.283 78.9767C217.283 78.9768 217.283 78.9768 217.283 78.9769C217.283 78.977 217.283 78.9772 217.283 78.9774C217.283 78.978 217.284 78.9787 217.284 78.9797C217.285 78.9816 217.286 78.9845 217.288 78.9883C217.292 78.9959 217.297 79.0072 217.303 79.0221C217.316 79.0517 217.336 79.0954 217.361 79.1518C217.411 79.2646 217.483 79.4284 217.573 79.6327C217.751 80.0413 217.998 80.612 218.268 81.2608C218.809 82.5557 219.451 84.1715 219.847 85.4304L219.255 85.6167C218.868 84.3864 218.235 82.7925 217.695 81.4999C217.426 80.855 217.181 80.2875 217.004 79.8813C216.915 79.6782 216.843 79.5155 216.794 79.4037C216.769 79.3478 216.75 79.3046 216.737 79.2754C216.73 79.2609 216.725 79.2498 216.722 79.2424C216.72 79.2387 216.719 79.2359 216.718 79.2341C216.718 79.2331 216.717 79.2324 216.717 79.232C216.717 79.2318 216.717 79.2316 216.717 79.2315C216.717 79.2314 216.717 79.2314 216.717 79.2314C216.717 79.2314 216.717 79.2314 217 79.104ZM213.843 86.5832C214.065 85.4709 214.79 83.5578 215.447 81.9482C215.778 81.1378 216.095 80.3952 216.33 79.8553C216.447 79.5853 216.544 79.3659 216.611 79.2139C216.645 79.1378 216.671 79.0787 216.689 79.0384C216.698 79.0183 216.705 79.0029 216.71 78.9925C216.712 78.9874 216.714 78.9834 216.715 78.9808C216.716 78.9794 216.716 78.9784 216.716 78.9777C216.716 78.9774 216.717 78.9771 216.717 78.9769C216.717 78.9769 216.717 78.9768 216.717 78.9767C216.717 78.9767 216.717 78.9767 217 79.104C217.283 79.2314 217.283 79.2314 217.283 79.2314C217.283 79.2314 217.283 79.2315 217.283 79.2316C217.283 79.2317 217.283 79.2319 217.282 79.2322C217.282 79.2329 217.282 79.2338 217.281 79.2351C217.28 79.2376 217.278 79.2414 217.276 79.2465C217.271 79.2566 217.265 79.2717 217.256 79.2916C217.238 79.3313 217.212 79.3899 217.179 79.4653C217.112 79.6161 217.016 79.8341 216.899 80.1026C216.666 80.6396 216.351 81.3777 216.022 82.1828C215.36 83.8041 214.66 85.661 214.452 86.7045L213.843 86.5832ZM205.977 81.9039L214.294 86.3704L214.001 86.9173L205.683 82.4508L205.977 81.9039ZM170.793 94.2825L205.726 81.8848L205.933 82.4698L171 94.8675L170.793 94.2825ZM170.349 92.7656C170.679 93.3658 170.954 93.9155 171.182 94.4536L170.611 94.6964C170.393 94.1827 170.128 93.6523 169.805 93.0645L170.349 92.7656ZM169.37 92.4808C169.719 92.2891 170.158 92.4166 170.349 92.7656L169.805 93.0645C169.779 93.016 169.718 92.9982 169.669 93.0249L169.37 92.4808ZM169.086 93.4598C168.894 93.1108 169.021 92.6725 169.37 92.4808L169.669 93.0249C169.621 93.0515 169.603 93.1124 169.63 93.1609L169.086 93.4598ZM169.836 94.9727C169.635 94.5041 169.389 94.0124 169.086 93.4598L169.63 93.1609C169.94 93.7255 170.195 94.2357 170.406 94.7277L169.836 94.9727ZM168.619 95.0538L170.017 94.5577L170.225 95.1427L168.827 95.6388L168.619 95.0538ZM168.968 95.1539L168.985 95.1791L168.462 95.5136L168.446 95.4883L168.968 95.1539ZM167.972 94.9357C168.307 94.7209 168.753 94.8184 168.968 95.1536L168.446 95.4886C168.416 95.442 168.354 95.4285 168.307 95.4583L167.972 94.9357ZM167.652 95.6748C167.601 95.3956 167.717 95.0991 167.972 94.9357L168.307 95.4583C168.272 95.4807 168.255 95.5217 168.263 95.5612L167.652 95.6748ZM-5.10379 156.708L167.854 95.3255L168.061 95.9105L-4.89621 157.293L-5.10379 156.708ZM-3.3092 180.027L-5.3092 157.027L-4.6908 156.973L-2.6908 179.973L-3.3092 180.027ZM342.189 180.31H-3V179.69H342.189V180.31ZM388 180.31H342.189V179.69H388V180.31ZM255.264 108.371L388.147 179.727L387.853 180.274L254.971 108.918L255.264 108.371ZM257.178 106.011C257.178 107.319 256.378 108.44 255.24 108.929L254.995 108.359C255.917 107.962 256.558 107.058 256.558 106.011H257.178ZM253.951 97.9409C254.234 97.8135 254.234 97.8136 254.234 97.8136C254.234 97.8137 254.234 97.8138 254.234 97.8139C254.234 97.8141 254.234 97.8144 254.234 97.8148C254.235 97.8156 254.235 97.8169 254.236 97.8185C254.237 97.8216 254.24 97.8264 254.242 97.8326C254.248 97.8451 254.256 97.8635 254.267 97.8876C254.288 97.9358 254.32 98.0065 254.36 98.0971C254.44 98.2781 254.554 98.5384 254.691 98.8556C254.966 99.4898 255.331 100.352 255.697 101.265C256.063 102.178 256.431 103.144 256.707 103.984C256.845 104.403 256.962 104.795 257.044 105.135C257.125 105.47 257.178 105.774 257.178 106.011H256.558C256.558 105.851 256.519 105.605 256.441 105.282C256.364 104.964 256.253 104.589 256.117 104.178C255.847 103.356 255.485 102.403 255.121 101.496C254.758 100.59 254.395 99.7329 254.122 99.1019C253.985 98.7865 253.872 98.5278 253.792 98.3481C253.753 98.2583 253.721 98.1882 253.7 98.1406C253.69 98.1168 253.681 98.0986 253.676 98.0865C253.673 98.0804 253.671 98.0758 253.67 98.0727C253.669 98.0712 253.669 98.0701 253.668 98.0693C253.668 98.0689 253.668 98.0687 253.668 98.0685C253.668 98.0684 253.668 98.0683 253.668 98.0683C253.668 98.0683 253.668 98.0682 253.951 97.9409ZM250.723 106.011C250.723 105.774 250.776 105.47 250.857 105.135C250.94 104.795 251.056 104.403 251.195 103.984C251.471 103.144 251.838 102.178 252.204 101.265C252.57 100.352 252.936 99.4898 253.21 98.8556C253.347 98.5384 253.462 98.2781 253.542 98.0971C253.582 98.0065 253.613 97.9358 253.635 97.8876C253.645 97.8635 253.654 97.8451 253.659 97.8326C253.662 97.8264 253.664 97.8216 253.666 97.8185C253.666 97.8169 253.667 97.8156 253.667 97.8148C253.667 97.8144 253.668 97.8141 253.668 97.8139C253.668 97.8138 253.668 97.8137 253.668 97.8136C253.668 97.8136 253.668 97.8135 253.951 97.9409C254.234 98.0682 254.234 98.0683 254.234 98.0683C254.234 98.0683 254.234 98.0684 254.234 98.0685C254.234 98.0687 254.234 98.0689 254.233 98.0693C254.233 98.0701 254.232 98.0712 254.232 98.0727C254.23 98.0758 254.228 98.0804 254.226 98.0865C254.22 98.0986 254.212 98.1168 254.201 98.1406C254.18 98.1882 254.149 98.2583 254.109 98.3481C254.03 98.5278 253.916 98.7865 253.78 99.1019C253.507 99.7329 253.144 100.59 252.78 101.496C252.417 102.403 252.055 103.356 251.784 104.178C251.649 104.589 251.538 104.964 251.461 105.282C251.382 105.605 251.344 105.851 251.344 106.011H250.723ZM250.765 106.521C250.737 106.355 250.723 106.184 250.723 106.011H251.344C251.344 106.151 251.355 106.288 251.377 106.421L250.765 106.521ZM242.194 101.352L251.218 106.198L250.924 106.745L241.901 101.899L242.194 101.352ZM242.554 101.199C242.44 101.409 242.382 101.555 242.35 101.696L241.745 101.556C241.794 101.343 241.878 101.143 242.009 100.902L242.554 101.199ZM242.265 100.221C242.615 100.411 242.744 100.849 242.554 101.199L242.009 100.902C242.035 100.854 242.017 100.793 241.969 100.766L242.265 100.221ZM241.288 100.51C241.478 100.16 241.915 100.031 242.265 100.221L241.969 100.766C241.92 100.74 241.859 100.758 241.833 100.806L241.288 100.51ZM241.012 101.132C241.082 100.918 241.175 100.717 241.288 100.51L241.833 100.806C241.732 100.992 241.656 101.157 241.602 101.324L241.012 101.132ZM240.851 100.631L241.454 100.955L241.16 101.502L240.557 101.178L240.851 100.631ZM241.026 100.889C241.019 100.917 241.013 100.944 241.007 100.972L240.401 100.836C240.408 100.804 240.416 100.771 240.424 100.739L241.026 100.889ZM241.575 99.6424C241.29 100.125 241.126 100.491 241.026 100.889L240.424 100.739C240.543 100.262 240.738 99.8396 241.04 99.3271L241.575 99.6424ZM241.32 98.6552C241.663 98.8575 241.777 99.2995 241.575 99.6424L241.04 99.3271C241.068 99.2794 241.052 99.218 241.005 99.1899L241.32 98.6552ZM240.333 98.91C240.535 98.567 240.977 98.453 241.32 98.6552L241.005 99.1899C240.957 99.1618 240.895 99.1777 240.867 99.2253L240.333 98.91ZM239.659 100.421C239.805 99.8908 240.03 99.4233 240.333 98.91L240.867 99.2253C240.581 99.7116 240.384 100.127 240.257 100.586L239.659 100.421ZM239.277 99.7857L240.105 100.23L239.811 100.777L238.983 100.333L239.277 99.7857ZM239.461 99.9963C239.452 100.038 239.443 100.08 239.434 100.122L238.826 99.9962C238.835 99.9506 238.845 99.9052 238.855 99.8598L239.461 99.9963ZM240.309 97.7619C239.876 98.6305 239.618 99.301 239.461 99.9963L238.855 99.8599C239.027 99.0996 239.308 98.3802 239.754 97.4851L240.309 97.7619ZM239.985 96.7951C240.342 96.9727 240.487 97.4055 240.309 97.7619L239.754 97.4851C239.778 97.4356 239.758 97.3754 239.709 97.3507L239.985 96.7951ZM239.019 97.119C239.196 96.7626 239.629 96.6176 239.985 96.7951L239.709 97.3507C239.659 97.3261 239.599 97.3462 239.574 97.3957L239.019 97.119ZM238.076 99.5839C238.269 98.7736 238.573 98.0138 239.019 97.1189L239.574 97.3958C239.141 98.2654 238.858 98.9787 238.68 99.7272L238.076 99.5839ZM223.674 91.4072L238.525 99.3821L238.232 99.929L223.38 91.954L223.674 91.4072ZM224.117 90.4524C224.117 90.9395 224.006 91.4018 223.807 91.8152L223.247 91.546C223.407 91.2146 223.496 90.8441 223.496 90.4524H224.117ZM220.889 82.3825C221.172 82.2552 221.172 82.2552 221.172 82.2553C221.172 82.2554 221.172 82.2554 221.173 82.2555C221.173 82.2558 221.173 82.2561 221.173 82.2565C221.173 82.2573 221.174 82.2585 221.175 82.2601C221.176 82.2633 221.178 82.268 221.181 82.2743C221.187 82.2867 221.195 82.3052 221.206 82.3293C221.227 82.3774 221.258 82.4482 221.299 82.5387C221.379 82.7198 221.493 82.98 221.63 83.2972C221.904 83.9314 222.27 84.7941 222.636 85.7071C223.002 86.6193 223.369 87.5853 223.646 88.4252C223.784 88.845 223.9 89.237 223.983 89.5771C224.064 89.912 224.117 90.216 224.117 90.4524H223.496C223.496 90.2922 223.458 90.0465 223.38 89.7233C223.302 89.4052 223.191 89.0303 223.056 88.6193C222.785 87.7973 222.423 86.8451 222.06 85.9381C221.697 85.0319 221.333 84.1745 221.06 83.5435C220.924 83.2281 220.81 82.9695 220.731 82.7898C220.691 82.6999 220.66 82.6298 220.639 82.5822C220.628 82.5585 220.62 82.5403 220.614 82.5281C220.612 82.522 220.61 82.5175 220.608 82.5144C220.608 82.5129 220.607 82.5117 220.607 82.511C220.607 82.5106 220.606 82.5103 220.606 82.5101C220.606 82.5101 220.606 82.51 220.606 82.5099C220.606 82.5099 220.606 82.5099 220.889 82.3825Z" fill="url(#paint3_radial_39_2138)" fill-opacity="0.5"/>
<mask id="path-6-inside-1_39_2138" fill="white">
<path fill-rule="evenodd" clip-rule="evenodd" d="M-3.0752 251.397V126.94C-3.0752 126.94 5.20206 123.753 16.5084 119.751V116.512C11.9314 115.634 8.4743 111.625 8.4743 106.812C8.4743 101.355 18.3988 79.0547 18.3988 79.0547C18.3988 79.0547 28.3232 101.355 28.3232 106.812C28.3232 111.625 24.8661 115.634 20.2892 116.512V118.423C25.4101 116.637 30.9865 114.748 36.6001 112.945L30.4998 107.286L38.6435 74.1592L46.7871 107.286L42.781 111.002C46.2822 109.927 49.7377 108.914 53.0445 108.008C63.5649 105.125 77.7281 101.921 90.3512 99.2254L93.5957 57.7064H91.2616C90.8972 57.7064 90.6868 57.2928 90.9015 56.9983L98.1828 47.0125L106.869 37.0851C107.224 36.6793 107.856 36.6793 108.211 37.0851L116.897 47.0125L124.178 56.9983C124.393 57.2928 124.183 57.7064 123.818 57.7064H121.93L125.041 97.5244C136.567 107.98 168.397 134.051 208.036 143.06C274.529 158.172 344.561 124.649 398.921 86.2706L410.862 47.5721L417.635 69.5254L428.911 32.9846L436.411 57.2942C472.861 26.6829 496.078 0 496.078 0V251.397H-3.0752Z"/>
</mask>
<path fill-rule="evenodd" clip-rule="evenodd" d="M-3.0752 251.397V126.94C-3.0752 126.94 5.20206 123.753 16.5084 119.751V116.512C11.9314 115.634 8.4743 111.625 8.4743 106.812C8.4743 101.355 18.3988 79.0547 18.3988 79.0547C18.3988 79.0547 28.3232 101.355 28.3232 106.812C28.3232 111.625 24.8661 115.634 20.2892 116.512V118.423C25.4101 116.637 30.9865 114.748 36.6001 112.945L30.4998 107.286L38.6435 74.1592L46.7871 107.286L42.781 111.002C46.2822 109.927 49.7377 108.914 53.0445 108.008C63.5649 105.125 77.7281 101.921 90.3512 99.2254L93.5957 57.7064H91.2616C90.8972 57.7064 90.6868 57.2928 90.9015 56.9983L98.1828 47.0125L106.869 37.0851C107.224 36.6793 107.856 36.6793 108.211 37.0851L116.897 47.0125L124.178 56.9983C124.393 57.2928 124.183 57.7064 123.818 57.7064H121.93L125.041 97.5244C136.567 107.98 168.397 134.051 208.036 143.06C274.529 158.172 344.561 124.649 398.921 86.2706L410.862 47.5721L417.635 69.5254L428.911 32.9846L436.411 57.2942C472.861 26.6829 496.078 0 496.078 0V251.397H-3.0752Z" fill="url(#paint4_linear_39_2138)"/>
<path d="M-3.0752 126.94H-4.0752C-4.0752 126.526 -3.82053 126.155 -3.43454 126.007L-3.0752 126.94ZM-3.0752 251.397V252.397C-3.62747 252.397 -4.0752 251.949 -4.0752 251.397H-3.0752ZM16.5084 119.751H17.5084C17.5084 120.175 17.2414 120.552 16.842 120.694L16.5084 119.751ZM16.5084 116.512L16.6969 115.53C17.1679 115.621 17.5084 116.033 17.5084 116.512H16.5084ZM18.3988 79.0547L17.4852 78.6481C17.6458 78.2872 18.0038 78.0547 18.3988 78.0547C18.7938 78.0547 19.1518 78.2872 19.3124 78.6481L18.3988 79.0547ZM20.2892 116.512H19.2892C19.2892 116.033 19.6296 115.621 20.1006 115.53L20.2892 116.512ZM20.2892 118.423L20.6184 119.367C20.3126 119.474 19.9741 119.425 19.7101 119.238C19.446 119.05 19.2892 118.747 19.2892 118.423H20.2892ZM36.6001 112.945L37.2802 112.212C37.5406 112.454 37.6533 112.815 37.5763 113.162C37.4992 113.509 37.244 113.789 36.9059 113.897L36.6001 112.945ZM30.4998 107.286L29.8197 108.019C29.5534 107.772 29.442 107.4 29.5287 107.047L30.4998 107.286ZM38.6435 74.1592L37.6724 73.9205C37.7823 73.4734 38.1831 73.1592 38.6435 73.1592C39.1038 73.1592 39.5047 73.4734 39.6146 73.9205L38.6435 74.1592ZM46.7871 107.286L47.7582 107.047C47.8449 107.4 47.7335 107.772 47.4672 108.019L46.7871 107.286ZM42.781 111.002L43.0745 111.958C42.6287 112.095 42.1475 111.906 41.9146 111.502C41.6818 111.098 41.7591 110.586 42.1009 110.269L42.781 111.002ZM53.0445 108.008L52.7802 107.043L53.0445 108.008ZM90.3512 99.2254L91.3481 99.3033C91.3137 99.7447 90.993 100.111 90.56 100.203L90.3512 99.2254ZM93.5957 57.7064V56.7064C93.8744 56.7064 94.1405 56.8228 94.3298 57.0274C94.5191 57.232 94.6143 57.5064 94.5926 57.7843L93.5957 57.7064ZM90.9015 56.9983L90.0935 56.4092V56.4091L90.9015 56.9983ZM98.1828 47.0125L97.3748 46.4233C97.3923 46.3994 97.4108 46.3763 97.4303 46.354L98.1828 47.0125ZM106.869 37.0851L107.622 37.7436L106.869 37.0851ZM108.211 37.0851L107.458 37.7436L108.211 37.0851ZM116.897 47.0125L117.65 46.354C117.669 46.3763 117.688 46.3994 117.705 46.4233L116.897 47.0125ZM124.178 56.9983L123.37 57.5875L123.37 57.5875L124.178 56.9983ZM121.93 57.7064L120.933 57.7843C120.911 57.5064 121.007 57.232 121.196 57.0274C121.385 56.8228 121.651 56.7064 121.93 56.7064V57.7064ZM125.041 97.5244L124.37 98.2651C124.181 98.0937 124.064 97.8566 124.044 97.6023L125.041 97.5244ZM208.036 143.06L207.815 144.035L208.036 143.06ZM398.921 86.2706L399.876 86.5654C399.811 86.7765 399.678 86.9601 399.497 87.0875L398.921 86.2706ZM410.862 47.5721L409.906 47.2772C410.035 46.858 410.423 46.5721 410.862 46.5721C411.3 46.5721 411.688 46.858 411.817 47.2772L410.862 47.5721ZM417.635 69.5254L418.591 69.8202C418.462 70.2394 418.074 70.5254 417.635 70.5254C417.197 70.5254 416.809 70.2394 416.68 69.8202L417.635 69.5254ZM428.911 32.9846L427.955 32.6897C428.084 32.2705 428.472 31.9846 428.911 31.9846C429.349 31.9846 429.737 32.2705 429.866 32.6897L428.911 32.9846ZM436.411 57.2942L437.055 58.0599C436.798 58.2755 436.45 58.3481 436.129 58.2534C435.807 58.1587 435.555 57.9093 435.456 57.589L436.411 57.2942ZM496.078 0L495.324 -0.656415C495.598 -0.971088 496.038 -1.08276 496.429 -0.936589C496.819 -0.79042 497.078 -0.417116 497.078 0L496.078 0ZM496.078 251.397H497.078C497.078 251.949 496.63 252.397 496.078 252.397V251.397ZM-2.0752 126.94V251.397H-4.0752V126.94H-2.0752ZM16.842 120.694C11.195 122.692 6.30438 124.488 2.82574 125.783C1.08649 126.431 -0.299622 126.954 -1.25058 127.314C-1.72604 127.495 -2.09271 127.635 -2.34036 127.729C-2.46417 127.777 -2.55823 127.813 -2.62125 127.837C-2.65274 127.849 -2.67648 127.858 -2.69232 127.864C-2.70023 127.867 -2.70615 127.869 -2.71008 127.871C-2.71204 127.872 -2.7135 127.872 -2.71448 127.873C-2.71497 127.873 -2.7153 127.873 -2.71555 127.873C-2.71567 127.873 -2.71573 127.873 -2.71579 127.873C-2.71585 127.873 -2.71585 127.873 -3.0752 126.94C-3.43454 126.007 -3.43448 126.007 -3.43442 126.007C-3.43436 126.007 -3.43423 126.007 -3.43408 126.007C-3.43381 126.006 -3.43341 126.006 -3.43289 126.006C-3.43182 126.006 -3.43027 126.005 -3.42822 126.004C-3.4241 126.003 -3.418 126 -3.40991 125.997C-3.39371 125.991 -3.3696 125.982 -3.33771 125.97C-3.27396 125.945 -3.17914 125.909 -3.05453 125.861C-2.80536 125.766 -2.43704 125.625 -1.95984 125.444C-1.00549 125.082 0.384369 124.558 2.12772 123.909C5.61426 122.611 10.5154 120.811 16.1747 118.808L16.842 120.694ZM17.5084 116.512V119.751H15.5084V116.512H17.5084ZM9.4743 106.812C9.4743 111.133 12.5789 114.74 16.6969 115.53L16.3199 117.494C11.2839 116.528 7.4743 112.116 7.4743 106.812H9.4743ZM18.3988 79.0547C19.3124 79.4613 19.3124 79.4613 19.3123 79.4614C19.3122 79.4616 19.3121 79.4618 19.312 79.4621C19.3117 79.4628 19.3113 79.4637 19.3107 79.465C19.3096 79.4676 19.3078 79.4715 19.3055 79.4768C19.3008 79.4873 19.2938 79.5031 19.2845 79.5241C19.2659 79.566 19.2383 79.6285 19.2021 79.7103C19.1299 79.874 19.0237 80.1152 18.8885 80.4243C18.6181 81.0426 18.2315 81.9325 17.7675 83.0176C16.8393 85.1884 15.6024 88.1378 14.3661 91.2557C13.1289 94.3759 11.8969 97.653 10.9759 100.482C10.5152 101.897 10.1361 103.189 9.8732 104.286C9.60629 105.399 9.4743 106.251 9.4743 106.812H7.4743C7.4743 106.008 7.65244 104.97 7.92831 103.819C8.2081 102.652 8.60437 101.306 9.07413 99.8632C10.0139 96.9765 11.2631 93.6554 12.507 90.5184C13.7518 87.3791 14.996 84.4124 15.9286 82.2313C16.3951 81.1404 16.7838 80.2455 17.0561 79.6228C17.1923 79.3115 17.2994 79.0683 17.3725 78.9026C17.4091 78.8198 17.4371 78.7564 17.4561 78.7136C17.4656 78.6922 17.4728 78.6759 17.4777 78.6649C17.4801 78.6595 17.482 78.6553 17.4832 78.6525C17.4838 78.6511 17.4843 78.65 17.4846 78.6493C17.4848 78.6489 17.4849 78.6486 17.485 78.6484C17.4851 78.6482 17.4852 78.6481 18.3988 79.0547ZM27.3232 106.812C27.3232 106.251 27.1913 105.399 26.9243 104.286C26.6614 103.189 26.2823 101.897 25.8217 100.482C24.9006 97.653 23.6687 94.3759 22.4314 91.2557C21.1951 88.1378 19.9582 85.1884 19.03 83.0176C18.566 81.9325 18.1794 81.0426 17.909 80.4243C17.7738 80.1152 17.6677 79.874 17.5954 79.7103C17.5593 79.6285 17.5316 79.566 17.513 79.5241C17.5038 79.5031 17.4967 79.4873 17.4921 79.4768C17.4897 79.4715 17.488 79.4676 17.4868 79.465C17.4862 79.4637 17.4858 79.4628 17.4855 79.4621C17.4854 79.4618 17.4853 79.4616 17.4852 79.4614C17.4852 79.4613 17.4852 79.4613 18.3988 79.0547C19.3124 78.6481 19.3124 78.6482 19.3125 78.6484C19.3126 78.6486 19.3127 78.6489 19.3129 78.6493C19.3132 78.65 19.3137 78.6511 19.3143 78.6525C19.3156 78.6553 19.3174 78.6595 19.3199 78.6649C19.3247 78.6759 19.332 78.6922 19.3415 78.7136C19.3604 78.7564 19.3885 78.8198 19.425 78.9026C19.4982 79.0683 19.6053 79.3115 19.7414 79.6228C20.0137 80.2455 20.4025 81.1404 20.8689 82.2313C21.8016 84.4124 23.0458 87.3791 24.2906 90.5184C25.5345 93.6554 26.7837 96.9765 27.7234 99.8632C28.1932 101.306 28.5894 102.652 28.8692 103.819C29.1451 104.97 29.3232 106.008 29.3232 106.812H27.3232ZM20.1006 115.53C24.2186 114.74 27.3232 111.133 27.3232 106.812H29.3232C29.3232 112.116 25.5137 116.528 20.4777 117.494L20.1006 115.53ZM19.2892 118.423V116.512H21.2892V118.423H19.2892ZM36.9059 113.897C31.3019 115.697 25.7336 117.583 20.6184 119.367L19.9599 117.478C25.0866 115.691 30.671 113.799 36.2943 111.993L36.9059 113.897ZM31.1799 106.553L37.2802 112.212L35.92 113.678L29.8197 108.019L31.1799 106.553ZM39.6146 74.3979L31.4709 107.524L29.5287 107.047L37.6724 73.9205L39.6146 74.3979ZM45.816 107.524L37.6724 74.3979L39.6146 73.9205L47.7582 107.047L45.816 107.524ZM42.1009 110.269L46.107 106.553L47.4672 108.019L43.4612 111.735L42.1009 110.269ZM53.3087 108.972C50.0137 109.875 46.5682 110.886 43.0745 111.958L42.4876 110.046C45.9963 108.969 49.4617 107.952 52.7802 107.043L53.3087 108.972ZM90.56 100.203C77.94 102.898 63.8001 106.097 53.3087 108.972L52.7802 107.043C63.3297 104.152 77.5162 100.944 90.1424 98.2475L90.56 100.203ZM89.3542 99.1475L92.5987 57.6285L94.5926 57.7843L91.3481 99.3033L89.3542 99.1475ZM93.5957 58.7064H91.2616V56.7064H93.5957V58.7064ZM91.2616 58.7064C90.0793 58.7064 89.397 57.3645 90.0935 56.4092L91.7095 57.5875C91.9767 57.2211 91.715 56.7064 91.2616 56.7064V58.7064ZM90.0935 56.4091L97.3748 46.4233L98.9908 47.6017L91.7095 57.5875L90.0935 56.4091ZM97.4303 46.354L106.117 36.4266L107.622 37.7436L98.9354 47.671L97.4303 46.354ZM106.117 36.4266C106.87 35.5655 108.21 35.5655 108.963 36.4266L107.458 37.7436C107.501 37.7932 107.579 37.7932 107.622 37.7436L106.117 36.4266ZM108.963 36.4266L117.65 46.354L116.145 47.671L107.458 37.7436L108.963 36.4266ZM117.705 46.4233L124.986 56.4091L123.37 57.5875L116.089 47.6017L117.705 46.4233ZM124.986 56.4091C125.683 57.3644 125.001 58.7064 123.818 58.7064V56.7064C123.365 56.7064 123.103 57.2211 123.37 57.5875L124.986 56.4091ZM123.818 58.7064H121.93V56.7064H123.818V58.7064ZM122.927 57.6285L126.038 97.4465L124.044 97.6023L120.933 57.7843L122.927 57.6285ZM207.815 144.035C167.919 134.968 135.932 108.754 124.37 98.2651L125.713 96.7838C137.202 107.206 168.875 133.134 208.258 142.085L207.815 144.035ZM399.497 87.0875C345.095 125.496 274.749 159.248 207.815 144.035L208.258 142.085C274.309 157.097 344.027 123.802 398.344 85.4537L399.497 87.0875ZM411.817 47.8669L399.876 86.5654L397.965 85.9757L409.906 47.2772L411.817 47.8669ZM416.68 69.8202L409.906 47.8669L411.817 47.2772L418.591 69.2305L416.68 69.8202ZM429.866 33.2794L418.591 69.8202L416.68 69.2305L427.955 32.6897L429.866 33.2794ZM435.456 57.589L427.955 33.2794L429.866 32.6897L437.367 56.9993L435.456 57.589ZM496.078 0C496.833 0.656415 496.832 0.656594 496.832 0.656875C496.832 0.657104 496.832 0.657486 496.831 0.657944C496.83 0.65886 496.829 0.660182 496.828 0.661908C496.825 0.665361 496.82 0.670432 496.814 0.677111C496.803 0.690468 496.786 0.710254 496.763 0.736383C496.717 0.788641 496.649 0.86627 496.558 0.968575C496.378 1.17319 496.109 1.4765 495.755 1.87297C495.045 2.6659 493.993 3.83146 492.616 5.32518C489.863 8.31258 485.814 12.6129 480.625 17.8703C470.248 28.3846 455.308 42.7302 437.055 58.0599L435.768 56.5284C453.964 41.2468 468.858 26.9454 479.202 16.4654C484.373 11.2257 488.406 6.94205 491.146 3.96981C492.515 2.48372 493.561 1.32552 494.264 0.539662C494.615 0.146733 494.881 -0.153107 495.058 -0.354306C495.147 -0.454906 495.214 -0.530844 495.258 -0.581427C495.28 -0.606719 495.297 -0.625671 495.308 -0.638198C495.313 -0.644462 495.317 -0.649119 495.32 -0.652159C495.321 -0.653678 495.322 -0.654794 495.323 -0.655504C495.323 -0.655859 495.323 -0.656087 495.324 -0.656264C495.324 -0.656391 495.324 -0.656415 496.078 0ZM495.078 251.397V0H497.078V251.397H495.078ZM-3.0752 250.397H496.078V252.397H-3.0752V250.397Z" fill="url(#paint5_radial_39_2138)" fill-opacity="0.5" mask="url(#path-6-inside-1_39_2138)"/>
<path d="M111.62 30.4534L102.709 30.6089L103.23 60.4582L103.386 69.3684L103.907 99.2176L112.817 99.0621L112.296 69.2129L112.152 60.9709L111.62 30.4534Z" fill="white" fill-opacity="0.08"/>
<path d="M112.152 60.9709L141.998 60.2271L142.145 68.6918L112.296 69.2129L112.152 60.9709Z" fill="white" fill-opacity="0.08"/>
<path d="M103.386 69.3684L73.5366 69.8894L73.3811 60.9792L103.23 60.4582L103.386 69.3684Z" fill="white" fill-opacity="0.08"/>
<path fill-rule="evenodd" clip-rule="evenodd" d="M113.371 28.6403L100.897 28.858L102.157 101.031L114.631 100.813L113.371 28.6403ZM112.496 29.5469L101.804 29.7335L101.913 35.9706L112.605 35.784L112.496 29.5469ZM101.928 36.8617L112.62 36.675L112.729 42.9122L102.037 43.0988L101.928 36.8617ZM112.745 43.8032L102.053 43.9898L102.161 50.227L112.854 50.0404L112.745 43.8032ZM102.177 51.118L112.869 50.9314L112.978 57.1685L102.286 57.3552L102.177 51.118ZM112.994 58.0596L102.301 58.2462L102.41 64.4834L113.103 64.2967L112.994 58.0596ZM102.426 65.3744L113.118 65.1877L113.227 71.4249L102.535 71.6115L102.426 65.3744ZM113.243 72.3159L102.55 72.5025L102.659 78.7397L113.351 78.5531L113.243 72.3159ZM102.675 79.6307L113.367 79.4441L113.476 85.6812L102.784 85.8679L102.675 79.6307ZM113.491 86.5723L102.799 86.7589L102.908 92.9961L113.6 92.8094L113.491 86.5723ZM102.924 93.8871L113.616 93.7004L113.725 99.9376L103.032 100.124L102.924 93.8871Z" fill="white" fill-opacity="0.08"/>
<path fill-rule="evenodd" clip-rule="evenodd" d="M71.5689 59.2283L71.7867 71.7026L143.959 70.4428L143.742 57.9685L71.5689 59.2283ZM72.4755 60.1037L72.6621 70.796L78.8993 70.6871L78.7127 59.9949L72.4755 60.1037ZM79.7903 70.6716L79.6037 59.9793L85.8408 59.8705L86.0275 70.5627L79.7903 70.6716ZM86.7319 59.8549L86.9185 70.5472L93.1557 70.4383L92.969 59.746L86.7319 59.8549ZM94.0467 70.4227L93.86 59.7305L100.097 59.6216L100.284 70.3139L94.0467 70.4227ZM100.988 59.6061L101.175 70.2983L107.412 70.1895L107.225 59.4972L100.988 59.6061ZM108.303 70.1739L108.116 59.4816L114.354 59.3728L114.54 70.065L108.303 70.1739ZM115.245 59.3572L115.431 70.0495L121.668 69.9406L121.482 59.2483L115.245 59.3572ZM122.559 69.9251L122.373 59.2328L128.61 59.1239L128.797 69.8162L122.559 69.9251ZM129.501 59.1084L129.688 69.8006L135.925 69.6918L135.738 58.9995L129.501 59.1084ZM136.816 69.6762L136.629 58.9839L142.866 58.8751L143.053 69.5673L136.816 69.6762Z" fill="white" fill-opacity="0.08"/>
<defs>
<linearGradient id="paint0_linear_39_2138" x1="329.271" y1="63.2825" x2="329.271" y2="170.679" gradientUnits="userSpaceOnUse">
<stop stop-color="#1F1F1F"/>
<stop offset="1" stop-color="#111111"/>
</linearGradient>
<radialGradient id="paint1_radial_39_2138" cx="0" cy="0" r="1" gradientUnits="userSpaceOnUse" gradientTransform="translate(329.271 83.6878) rotate(90) scale(97.3011 127.525)">
<stop stop-color="white"/>
<stop offset="1" stop-color="white" stop-opacity="0.25"/>
</radialGradient>
<linearGradient id="paint2_linear_39_2138" x1="191.5" y1="79.104" x2="191.5" y2="180" gradientUnits="userSpaceOnUse">
<stop stop-color="#1F1F1F"/>
<stop offset="1" stop-color="#111111"/>
</linearGradient>
<radialGradient id="paint3_radial_39_2138" cx="0" cy="0" r="1" gradientUnits="userSpaceOnUse" gradientTransform="translate(191.5 98.2743) rotate(90) scale(91.4119 215.982)">
<stop stop-color="white"/>
<stop offset="1" stop-color="white" stop-opacity="0.25"/>
</radialGradient>
<linearGradient id="paint4_linear_39_2138" x1="246.501" y1="0" x2="246.501" y2="251.397" gradientUnits="userSpaceOnUse">
<stop stop-color="#1F1F1F"/>
<stop offset="1" stop-color="#111111"/>
</linearGradient>
<radialGradient id="paint5_radial_39_2138" cx="0" cy="0" r="1" gradientUnits="userSpaceOnUse" gradientTransform="translate(246.501 47.7654) rotate(90) scale(227.766 274.321)">
<stop stop-color="white"/>
<stop offset="1" stop-color="white" stop-opacity="0.25"/>
</radialGradient>
</defs>
</svg>
